# xmcd
#
# Track frame offsets:
#	150
#	14779
#	30553
#	45500
#	63718
#	76557
#	81725
#	102646
#	116601
#	130459
#	148954
#	170770
#	184978
#	200405
#	216099
#
# Disc length: 3042 seconds
#
# Revision: 1
# Processed by: cddbd v1.5.2PL0 Copyright (c) Steve Scherf et al.
# Submitted via: audiograbber 1.83.01
#
DISCID=e80be00f
DTITLE=Moonshine Liquor - The Story of Rey and  Earl
DYEAR=2012
DGENRE=
TTITLE0=Two Boys from Germany
TTITLE1=Louisiana
TTITLE2=Moonshine Liquor
TTITLE3=Joint with Jesus
TTITLE4=Rainy Summer Blues
TTITLE5=Up To Las Vegas
TTITLE6=Lonesome Man
TTITLE7=Yodl Dodl Polka
TTITLE8=I'm Gone
TTITLE9=Long Time No See
TTITLE10=NYSE Blues
TTITLE11=Years Gone By
TTITLE12=Banks Of Canada
TTITLE13=Dying With My Boots On
TTITLE14=Mail From The Lord
EXTD=
EXTT0=
EXTT1=
EXTT2=
EXTT3=
EXTT4=
EXTT5=
EXTT6=
EXTT7=
EXTT8=
EXTT9=
EXTT10=
EXTT11=
EXTT12=
EXTT13=
EXTT14=
PLAYORDER=
